<svg xmlns="http://www.w3.org/2000/svg" width="126" height="11" viewBox="0 0 126 11"><style type="text/css">.st0{display:none;}.st1{display:inline;fill:#010101;}.st2{fill:#010101;}</style><g class="st0"><rect x="2" y="3" class="st1" width="1" height="1"/><rect x="1" y="4" class="st1" width="1" height="1"/><polygon class="st1" points="5 1 4 1 4 2 3 2 3 3 4 3 4 6 1 6 1 5 0 5 0 6 0 7 4 7 4 9 5 9 5 7 6 7 6 6 5 6 "/><polygon class="st1" points="9 6 8 6 8 3 7 3 7 7 8 7 8 8 9 8 9 7 "/><rect x="9" y="5" class="st1" width="1" height="1"/><rect x="10" y="4" class="st1" width="1" height="1"/><rect x="8" y="2" class="st1" width="1" height="1"/><rect x="9" y="1" class="st1" width="2" height="1"/><polygon class="st1" points="12 2 11 2 11 3 11 4 12 4 12 7 13 7 13 3 12 3 "/><rect x="11" y="7" class="st1" width="1" height="1"/><rect x="9" y="8" class="st1" width="2" height="1"/><rect x="16" y="3" class="st1" width="1" height="1"/><rect x="15" y="4" class="st1" width="1" height="1"/><polygon class="st1" points="19 6 19 1 18 1 18 2 17 2 17 3 18 3 18 6 15 6 15 5 14 5 14 6 14 7 18 7 18 9 19 9 19 7 20 7 20 6 "/><rect x="21" y="4" class="st1" width="1" height="4"/><rect x="22" y="3" class="st1" width="3" height="1"/><rect x="22" y="8" class="st1" width="2" height="1"/><polygon class="st1" points="24 7 24 8 25 8 25 9 26 9 26 1 25 1 25 7 "/><polygon class="st1" points="32 8 32 9 28 9 28 8 27 8 27 4 28 4 28 5 31 5 31 4 32 4 32 6 28 6 28 8 "/><rect x="28" y="3" class="st1" width="3" height="1"/><rect x="33" y="3" class="st1" width="1" height="3"/><rect x="34" y="6" class="st1" width="1" height="2"/><rect x="35" y="8" class="st1" width="1" height="1"/><rect x="36" y="6" class="st1" width="1" height="2"/><rect x="37" y="3" class="st1" width="1" height="3"/><rect x="39" y="4" class="st1" width="1" height="5"/><rect x="40" y="9" class="st1" width="1" height="1"/><rect x="41" y="10" class="st1" width="3" height="1"/><rect x="41" y="5" class="st1" width="1" height="2"/><rect x="40" y="3" class="st1" width="1" height="1"/><rect x="41" y="2" class="st1" width="1" height="1"/><rect x="42" y="1" class="st1" width="2" height="1"/><rect x="44" y="2" class="st1" width="1" height="1"/><rect x="45" y="3" class="st1" width="1" height="4"/><polygon class="st1" points="44 4 42 4 42 5 43 5 43 7 42 7 42 8 45 8 45 7 45 7 44 7 "/><polygon class="st1" points="47 3 47 11 48 11 48 9 51 9 51 8 48 8 48 4 51 4 51 3 "/><rect x="51" y="4" class="st1" width="1" height="4"/><polyline class="st1" points="53 3 53 9 54 9 54 5 55 5 55 4 54 4 54 3 53 3 "/><rect x="55" y="3" class="st1" width="2" height="1"/><rect x="57" y="4" class="st1" width="1" height="1"/><rect x="59" y="4" class="st1" width="1" height="4"/><rect x="60" y="8" class="st1" width="3" height="1"/><rect x="63" y="4" class="st1" width="1" height="4"/><rect x="60" y="3" class="st1" width="3" height="1"/><polygon class="st1" points="64 3 64 4 66 4 66 8 67 8 67 4 69 4 69 3 67 3 67 1 66 1 66 3 "/><rect x="67" y="8" class="st1" width="2" height="1"/><rect x="70" y="4" class="st1" width="1" height="4"/><rect x="71" y="8" class="st1" width="3" height="1"/><rect x="74" y="4" class="st1" width="1" height="4"/><rect x="71" y="3" class="st1" width="3" height="1"/><polygon class="st1" points="76 3 76 9 77 9 77 4 80 4 80 3 "/><rect x="80" y="4" class="st1" width="1" height="5"/><polygon class="st1" points="82 3 82 9 83 9 83 4 84 4 84 3 "/><rect x="84" y="4" class="st1" width="1" height="5"/><rect x="85" y="3" class="st1" width="1" height="1"/><rect x="86" y="4" class="st1" width="1" height="5"/><rect x="88" y="6" class="st1" width="1" height="2"/><rect x="89" y="3" class="st1" width="3" height="1"/><polygon class="st1" points="93 4 92 4 92 5 89 5 89 6 92 6 92 8 89 8 89 9 93 9 "/><polygon class="st1" points="94 3 94 4 96 4 96 8 94 8 94 9 98 9 99 9 99 8 97 8 97 3 "/><rect x="95" class="st1" width="2" height="2"/><polygon class="st1" points="100 9 100 8 102 8 102 2 100 2 100 1 103 1 103 8 105 8 105 9 "/><rect x="106" y="7" class="st1" width="2" height="2"/><rect x="109" y="5" class="st1" width="1" height="2"/><rect x="110" y="7" class="st1" width="1" height="1"/><rect x="111" y="8" class="st1" width="3" height="1"/><rect x="110" y="4" class="st1" width="1" height="1"/><rect x="111" y="3" class="st1" width="3" height="1"/><rect x="115" y="4" class="st1" width="1" height="4"/><rect x="116" y="8" class="st1" width="3" height="1"/><rect x="119" y="4" class="st1" width="1" height="4"/><rect x="116" y="3" class="st1" width="3" height="1"/><polygon class="st1" points="121 3 121 9 122 9 122 4 123 4 123 3 "/><rect x="123" y="4" class="st1" width="1" height="5"/><rect x="124" y="3" class="st1" width="1" height="1"/><rect x="125" y="4" class="st1" width="1" height="5"/></g><rect x="2" y="3" class="st2" width="1" height="1"/><rect x="1" y="4" class="st2" width="1" height="1"/><polygon class="st2" points="5 1 4 1 4 2 3 2 3 3 4 3 4 6 1 6 1 5 0 5 0 6 0 7 4 7 4 9 5 9 5 7 6 7 6 6 5 6 "/><polygon class="st2" points="9 6 8 6 8 3 7 3 7 7 8 7 8 8 9 8 9 7 "/><rect x="9" y="5" class="st2" width="1" height="1"/><rect x="10" y="4" class="st2" width="1" height="1"/><rect x="8" y="2" class="st2" width="1" height="1"/><rect x="9" y="1" class="st2" width="2" height="1"/><polygon class="st2" points="12 2 11 2 11 3 11 4 12 4 12 7 13 7 13 3 12 3 "/><rect x="11" y="7" class="st2" width="1" height="1"/><rect x="9" y="8" class="st2" width="2" height="1"/><rect x="16" y="3" class="st2" width="1" height="1"/><rect x="15" y="4" class="st2" width="1" height="1"/><polygon class="st2" points="19 1 18 1 18 2 17 2 17 3 18 3 18 6 15 6 15 5 14 5 14 6 14 7 18 7 18 9 19 9 19 7 20 7 20 6 19 6 "/><rect x="21" y="4" class="st2" width="1" height="4"/><rect x="22" y="8" class="st2" width="2" height="1"/><polygon class="st2" points="25 3 22 3 22 4 25 4 25 7 24 7 24 8 25 8 25 9 26 9 26 1 25 1 "/><rect x="28" y="8" class="st2" width="4" height="1"/><polygon class="st2" points="31 5 28 5 28 4 27 4 27 8 28 8 28 6 32 6 32 4 31 4 "/><rect x="28" y="3" class="st2" width="3" height="1"/><rect x="33" y="3" class="st2" width="1" height="3"/><rect x="34" y="6" class="st2" width="1" height="2"/><rect x="35" y="8" class="st2" width="1" height="1"/><rect x="36" y="6" class="st2" width="1" height="2"/><rect x="37" y="3" class="st2" width="1" height="3"/><rect x="39" y="4" class="st2" width="1" height="5"/><rect x="40" y="9" class="st2" width="1" height="1"/><rect x="41" y="10" class="st2" width="3" height="1"/><rect x="41" y="5" class="st2" width="1" height="2"/><rect x="40" y="3" class="st2" width="1" height="1"/><rect x="41" y="2" class="st2" width="1" height="1"/><rect x="42" y="1" class="st2" width="2" height="1"/><rect x="44" y="2" class="st2" width="1" height="1"/><rect x="45" y="3" class="st2" width="1" height="4"/><polygon class="st2" points="44 4 42 4 42 5 43 5 43 7 42 7 42 8 45 8 45 7 44 7 "/><polygon class="st2" points="48 4 51 4 51 3 47 3 47 11 48 11 48 9 51 9 51 8 48 8 "/><rect x="51" y="4" class="st2" width="1" height="4"/><polygon class="st2" points="54 3 53 3 53 9 54 9 54 5 55 5 55 4 54 4 "/><rect x="55" y="3" class="st2" width="2" height="1"/><rect x="57" y="4" class="st2" width="1" height="1"/><rect x="59" y="4" class="st2" width="1" height="4"/><rect x="60" y="8" class="st2" width="3" height="1"/><rect x="63" y="4" class="st2" width="1" height="4"/><rect x="60" y="3" class="st2" width="3" height="1"/><polygon class="st2" points="67 1 66 1 66 3 64 3 64 4 66 4 66 8 67 8 67 4 69 4 69 3 67 3 "/><rect x="67" y="8" class="st2" width="2" height="1"/><rect x="70" y="4" class="st2" width="1" height="4"/><rect x="71" y="8" class="st2" width="3" height="1"/><rect x="74" y="4" class="st2" width="1" height="4"/><rect x="71" y="3" class="st2" width="3" height="1"/><polygon class="st2" points="76 3 76 9 77 9 77 4 80 4 80 3 "/><rect x="80" y="4" class="st2" width="1" height="5"/><polygon class="st2" points="82 3 82 9 83 9 83 4 84 4 84 3 "/><rect x="84" y="4" class="st2" width="1" height="5"/><rect x="85" y="3" class="st2" width="1" height="1"/><rect x="86" y="4" class="st2" width="1" height="5"/><rect x="88" y="6" class="st2" width="1" height="2"/><rect x="89" y="3" class="st2" width="3" height="1"/><polygon class="st2" points="92 5 89 5 89 6 92 6 92 8 89 8 89 9 93 9 93 4 92 4 "/><polygon class="st2" points="97 3 94 3 94 4 96 4 96 8 94 8 94 9 98 9 99 9 99 8 97 8 "/><rect x="95" class="st2" width="2" height="2"/><polygon class="st2" points="103 1 100 1 100 2 102 2 102 8 100 8 100 9 105 9 105 8 103 8 "/><rect x="106" y="7" class="st2" width="2" height="2"/><rect x="109" y="5" class="st2" width="1" height="2"/><rect x="110" y="7" class="st2" width="1" height="1"/><rect x="111" y="8" class="st2" width="3" height="1"/><rect x="110" y="4" class="st2" width="1" height="1"/><rect x="111" y="3" class="st2" width="3" height="1"/><rect x="115" y="4" class="st2" width="1" height="4"/><rect x="116" y="8" class="st2" width="3" height="1"/><rect x="119" y="4" class="st2" width="1" height="4"/><rect x="116" y="3" class="st2" width="3" height="1"/><polygon class="st2" points="121 3 121 9 122 9 122 4 123 4 123 3 "/><rect x="123" y="4" class="st2" width="1" height="5"/><rect x="124" y="3" class="st2" width="1" height="1"/><rect x="125" y="4" class="st2" width="1" height="5"/></svg>